ffmpeg started on 2016-12-12 at 10:19:50
Report written to "Output/theora/results/ffmpeg/sintel13000k.log"
Command line:
Tools/ffmpeg/ffmpeg -benchmark -y -i Input/y4m/sintel.y4m -c:v libtheora -b:v 13000k -an Output/theora/encoded/sintel13000k.mkv
ffmpeg version N-82227-gdb23fde Copyright (c) 2000-2016 the FFmpeg developers
  built with gcc 5.4.0 (Ubuntu 5.4.0-6ubuntu1~16.04.2) 20160609
  configuration: --prefix=/home/jaroslav/ffmpeg_build --pkg-config-flags=--static --extra-cflags=-I/home/jaroslav/ffmpeg_build/include --extra-ldflags=-L/home/jaroslav/ffmpeg_build/lib --bindir=/home/jaroslav/bin --enable-gpl --enable-libass --enable-libfdk-aac --enable-libfreetype --enable-libmp3lame --enable-libopus --enable-libtheora --enable-libvorbis --enable-libvpx --enable-libx264 --enable-libx265 --enable-nvenc --enable-libmfx --enable-libxvid --enable-libgsm --enable-libopencore-amrnb --enable-version3 --enable-nonfree
  libavutil      55. 35.100 / 55. 35.100
  libavcodec     57. 66.101 / 57. 66.101
  libavformat    57. 57.100 / 57. 57.100
  libavdevice    57.  2.100 / 57.  2.100
  libavfilter     6. 66.100 /  6. 66.100
  libswscale      4.  3.100 /  4.  3.100
  libswresample   2.  4.100 /  2.  4.100
  libpostproc    54.  2.100 / 54.  2.100
Input #0, yuv4mpegpipe, from 'Input/y4m/sintel.y4m':
  Duration: 00:00:20.83, start: 0.000000, bitrate: 2057307 kb/s
    Stream #0:0: Video: rawvideo (I420 / 0x30323449), yuv420p(progressive), 4096x1744, SAR 1:1 DAR 256:109, 24 fps, 24 tbr, 24 tbn, 24 tbc
Output #0, matroska, to 'Output/theora/encoded/sintel13000k.mkv':
  Metadata:
    encoder         : Lavf57.57.100
    Stream #0:0: Video: theora (libtheora) (theo / 0x6F656874), yuv420p, 4096x1744 [SAR 1:1 DAR 256:109], q=2-31, 13000 kb/s, 24 fps, 1k tbn, 24 tbc
    Metadata:
      encoder         : Lavc57.66.101 libtheora
Stream mapping:
  Stream #0:0 -> #0:0 (rawvideo (native) -> theora (libtheora))
Press [q] to stop, [?] for help
frame=    3 fps=0.0 q=-0.0 size=       4kB time=00:00:00.08 bitrate= 380.5kbits/s speed=0.102x    frame=    5 fps=3.2 q=-0.0 size=       4kB time=00:00:00.16 bitrate= 190.2kbits/s speed=0.107x    frame=    7 fps=3.2 q=-0.0 size=       4kB time=00:00:00.25 bitrate= 127.3kbits/s speed=0.113x    frame=    9 fps=3.2 q=-0.0 size=       4kB time=00:00:00.33 bitrate=  95.7kbits/s speed=0.117x    frame=   11 fps=3.1 q=-0.0 size=       4kB time=00:00:00.41 bitrate=  76.5kbits/s speed=0.12x    frame=   13 fps=3.1 q=-0.0 size=     855kB time=00:00:00.50 bitrate=13975.5kbits/s speed=0.121x    frame=   16 fps=3.2 q=-0.0 size=     855kB time=00:00:00.62 bitrate=11184.9kbits/s speed=0.126x    frame=   17 fps=2.0 q=-0.0 size=     855kB time=00:00:00.66 bitrate=10481.6kbits/s speed=0.0795x    frame=   18 fps=1.5 q=-0.0 size=     855kB time=00:00:00.70 bitrate=9875.5kbits/s speed=0.0591x    frame=   20 fps=1.6 q=-0.0 size=     855kB time=00:00:00.79 bitrate=8829.4kbits/s speed=0.0622x    frame=   22 fps=1.6 q=-0.0 size=     855kB time=00:00:00.87 bitrate=7992.8kbits/s speed=0.0654x    frame=   24 fps=1.7 q=-0.0 size=     855kB time=00:00:00.95 bitrate=7301.1kbits/s speed=0.0683x    frame=   27 fps=1.8 q=-0.0 size=    1677kB time=00:00:01.08 bitrate=12674.5kbits/s speed=0.073x    frame=   29 fps=1.9 q=-0.0 size=    1677kB time=00:00:01.16 bitrate=11763.0kbits/s speed=0.0753x    frame=   31 fps=1.9 q=-0.0 size=    1677kB time=00:00:01.25 bitrate=10982.5kbits/s speed=0.0775x    frame=   33 fps=2.0 q=-0.0 size=    1677kB time=00:00:01.33 bitrate=10299.2kbits/s speed=0.0795x    frame=   35 fps=2.0 q=-0.0 size=    1677kB time=00:00:01.41 bitrate=9689.1kbits/s speed=0.0813x    frame=   37 fps=2.0 q=-0.0 size=    2380kB time=00:00:01.50 bitrate=12991.0kbits/s speed=0.0829x    frame=   40 fps=2.1 q=-0.0 size=    2380kB time=00:00:01.62 bitrate=11992.3kbits/s speed=0.086x    frame=   42 fps=2.1 q=-0.0 size=    2380kB time=00:00:01.70 bitrate=11409.9kbits/s speed=0.0873x    frame=   44 fps=2.2 q=-0.0 size=    2380kB time=00:00:01.79 bitrate=10875.4kbits/s speed=0.0887x    frame=   46 fps=2.2 q=-0.0 size=    2380kB time=00:00:01.87 bitrate=10394.2kbits/s speed=0.0899x    frame=   48 fps=2.2 q=-0.0 size=    2380kB time=00:00:01.95 bitrate=9953.8kbits/s speed=0.0911x    frame=   51 fps=2.3 q=-0.0 size=    3132kB time=00:00:02.08 bitrate=12313.3kbits/s speed=0.0934x    frame=   53 fps=2.3 q=-0.0 size=    3132kB time=00:00:02.16 bitrate=11836.2kbits/s speed=0.0943x    frame=   55 fps=2.3 q=-0.0 size=    3132kB time=00:00:02.25 bitrate=11399.8kbits/s speed=0.0951x    frame=   57 fps=2.3 q=-0.0 size=    3132kB time=00:00:02.33 bitrate=10994.4kbits/s speed=0.096x    frame=   59 fps=2.4 q=-0.0 size=    3132kB time=00:00:02.41 bitrate=10612.4kbits/s speed=0.0968x    frame=   61 fps=2.4 q=-0.0 size=    4047kB time=00:00:02.50 bitrate=13254.7kbits/s speed=0.0976x    frame=   64 fps=2.4 q=-0.0 size=    4047kB time=00:00:02.62 bitrate=12623.7kbits/s speed=0.0992x    frame=   66 fps=2.4 q=-0.0 size=    4398kB time=00:00:02.70 bitrate=13298.4kbits/s speed=0.0999x    frame=   68 fps=2.4 q=-0.0 size=    4508kB time=00:00:02.79 bitrate=13222.9kbits/s speed=0.0998x    frame=   70 fps=2.4 q=-0.0 size=    4619kB time=00:00:02.87 bitrate=13157.3kbits/s speed=0.0996x    frame=   72 fps=2.4 q=-0.0 size=    4733kB time=00:00:02.95 bitrate=13102.6kbits/s speed=0.0996x    frame=   74 fps=2.4 q=-0.0 size=    4790kB time=00:00:03.04 bitrate=12893.9kbits/s speed=0.0997x    frame=   76 fps=2.4 q=-0.0 size=    4942kB time=00:00:03.12 bitrate=12951.2kbits/s speed= 0.1x    frame=   78 fps=2.4 q=-0.0 size=    5043kB time=00:00:03.20 bitrate=12873.8kbits/s speed= 0.1x    frame=   80 fps=2.4 q=-0.0 size=    5151kB time=00:00:03.29 bitrate=12814.4kbits/s speed= 0.1x    frame=   82 fps=2.4 q=-0.0 size=    5261kB time=00:00:03.37 bitrate=12766.4kbits/s speed= 0.1x    frame=   84 fps=2.4 q=-0.0 size=    5384kB time=00:00:03.45 bitrate=12749.8kbits/s speed= 0.1x    frame=   86 fps=2.4 q=-0.0 size=    5505kB time=00:00:03.54 bitrate=12728.2kbits/s speed= 0.1x    frame=   88 fps=2.4 q=-0.0 size=    5620kB time=00:00:03.62 bitrate=12696.2kbits/s speed= 0.1x    frame=   90 fps=2.4 q=-0.0 size=    5744kB time=00:00:03.70 bitrate=12687.3kbits/s speed= 0.1x    frame=   92 fps=2.4 q=-0.0 size=    5879kB time=00:00:03.79 bitrate=12697.8kbits/s speed= 0.1x    frame=   94 fps=2.4 q=-0.0 size=    6019kB time=00:00:03.87 bitrate=12721.2kbits/s speed= 0.1x    frame=   96 fps=2.4 q=-0.0 size=    6147kB time=00:00:03.95 bitrate=12719.0kbits/s speed=0.101x    frame=   98 fps=2.4 q=-0.0 size=    6219kB time=00:00:04.04 bitrate=12601.6kbits/s speed= 0.1x    frame=  100 fps=2.4 q=-0.0 size=    6351kB time=00:00:04.12 bitrate=12610.6kbits/s speed=0.101x    frame=  102 fps=2.5 q=-0.0 size=    6553kB time=00:00:04.20 bitrate=12753.9kbits/s speed=0.101x    frame=  104 fps=2.5 q=-0.0 size=    6553kB time=00:00:04.29 bitrate=12504.4kbits/s speed=0.101x    frame=  106 fps=2.5 q=-0.0 size=    6553kB time=00:00:04.37 bitrate=12267.2kbits/s speed=0.102x    frame=  108 fps=2.5 q=-0.0 size=    6553kB time=00:00:04.45 bitrate=12038.9kbits/s speed=0.102x    frame=  110 fps=2.5 q=-0.0 size=    6553kB time=00:00:04.54 bitrate=11816.3kbits/s speed=0.102x    frame=  112 fps=2.5 q=-0.0 size=    6553kB time=00:00:04.62 bitrate=11604.3kbits/s speed=0.103x    frame=  114 fps=2.5 q=-0.0 size=    7346kB time=00:00:04.70 bitrate=12779.9kbits/s speed=0.103x    frame=  116 fps=2.5 q=-0.0 size=    7479kB time=00:00:04.79 bitrate=12783.5kbits/s speed=0.104x    frame=  117 fps=2.5 q=-0.0 size=    7479kB time=00:00:04.83 bitrate=12675.1kbits/s speed=0.103x    frame=  119 fps=2.5 q=-0.0 size=    7479kB time=00:00:04.91 bitrate=12458.6kbits/s speed=0.104x    frame=  121 fps=2.5 q=-0.0 size=    7479kB time=00:00:05.00 bitrate=12251.8kbits/s speed=0.104x    frame=  123 fps=2.5 q=-0.0 size=    7479kB time=00:00:05.08 bitrate=12051.8kbits/s speed=0.104x    frame=  125 fps=2.5 q=-0.0 size=    7479kB time=00:00:05.16 bitrate=11855.9kbits/s speed=0.104x    frame=  127 fps=2.5 q=-0.0 size=    8392kB time=00:00:05.25 bitrate=13092.9kbits/s speed=0.104x    frame=  129 fps=2.5 q=-0.0 size=    8582kB time=00:00:05.33 bitrate=13180.5kbits/s speed=0.104x    frame=  131 fps=2.5 q=-0.0 size=    8784kB time=00:00:05.41 bitrate=13280.8kbits/s speed=0.104x    frame=  133 fps=2.5 q=-0.0 size=    9004kB time=00:00:05.50 bitrate=13408.7kbits/s speed=0.104x    frame=  135 fps=2.5 q=-0.0 size=    9224kB time=00:00:05.58 bitrate=13532.7kbits/s speed=0.103x    frame=  137 fps=2.5 q=-0.0 size=    9440kB time=00:00:05.66 bitrate=13643.6kbits/s speed=0.103x    frame=  139 fps=2.5 q=-0.0 size=    9653kB time=00:00:05.75 bitrate=13750.9kbits/s speed=0.103x    frame=  141 fps=2.5 q=-0.0 size=    9653kB time=00:00:05.83 bitrate=13555.3kbits/s speed=0.103x    frame=  143 fps=2.5 q=-0.0 size=    9653kB time=00:00:05.91 bitrate=13362.9kbits/s speed=0.104x    frame=  145 fps=2.5 q=-0.0 size=    9653kB time=00:00:06.00 bitrate=13178.0kbits/s speed=0.104x    frame=  147 fps=2.5 q=-0.0 size=    9653kB time=00:00:06.08 bitrate=12998.3kbits/s speed=0.104x    frame=  148 fps=2.5 q=-0.0 size=    9653kB time=00:00:06.12 bitrate=12909.2kbits/s speed=0.104x    frame=  150 fps=2.5 q=-0.0 size=    9653kB time=00:00:06.20 bitrate=12736.6kbits/s speed=0.104x    frame=  153 fps=2.5 q=-0.0 size=   10458kB time=00:00:06.33 bitrate=13525.2kbits/s speed=0.105x    frame=  155 fps=2.5 q=-0.0 size=   10458kB time=00:00:06.41 bitrate=13348.2kbits/s speed=0.105x    frame=  157 fps=2.5 q=-0.0 size=   10776kB time=00:00:06.50 bitrate=13578.4kbits/s speed=0.105x    frame=  159 fps=2.5 q=-0.0 size=   10776kB time=00:00:06.58 bitrate=13407.2kbits/s speed=0.105x    frame=  161 fps=2.5 q=-0.0 size=   10776kB time=00:00:06.66 bitrate=13238.3kbits/s speed=0.105x    frame=  163 fps=2.5 q=-0.0 size=   11116kB time=00:00:06.75 bitrate=13488.2kbits/s speed=0.106x    frame=  165 fps=2.5 q=-0.0 size=   11265kB time=00:00:06.83 bitrate=13503.6kbits/s speed=0.105x    frame=  167 fps=2.5 q=-0.0 size=   11416kB time=00:00:06.91 bitrate=13518.5kbits/s speed=0.105x    frame=  169 fps=2.5 q=-0.0 size=   11568kB time=00:00:07.00 bitrate=13535.4kbits/s speed=0.105x    frame=  171 fps=2.5 q=-0.0 size=   11721kB time=00:00:07.08 bitrate=13553.7kbits/s speed=0.105x    frame=  173 fps=2.5 q=-0.0 size=   11867kB time=00:00:07.16 bitrate=13562.8kbits/s speed=0.105x    frame=  175 fps=2.5 q=-0.0 size=   12018kB time=00:00:07.25 bitrate=13577.2kbits/s speed=0.105x    frame=  177 fps=2.5 q=-0.0 size=   12162kB time=00:00:07.33 bitrate=13585.3kbits/s speed=0.105x    frame=  179 fps=2.5 q=-0.0 size=   12299kB time=00:00:07.41 bitrate=13582.3kbits/s speed=0.105x    frame=  181 fps=2.5 q=-0.0 size=   12436kB time=00:00:07.50 bitrate=13581.9kbits/s speed=0.105x    frame=  183 fps=2.5 q=-0.0 size=   12578kB time=00:00:07.58 bitrate=13586.7kbits/s speed=0.104x    frame=  185 fps=2.5 q=-0.0 size=   12649kB time=00:00:07.66 bitrate=13513.6kbits/s speed=0.104x    frame=  187 fps=2.5 q=-0.0 size=   12649kB time=00:00:07.75 bitrate=13368.9kbits/s speed=0.104x    frame=  189 fps=2.5 q=-0.0 size=   12649kB time=00:00:07.83 bitrate=13227.3kbits/s speed=0.104x    frame=  191 fps=2.5 q=-0.0 size=   12649kB time=00:00:07.91 bitrate=13087.0kbits/s speed=0.105x    frame=  193 fps=2.5 q=-0.0 size=   12649kB time=00:00:08.00 bitrate=12951.2kbits/s speed=0.105x    frame=  195 fps=2.5 q=-0.0 size=   13384kB time=00:00:08.08 bitrate=13563.0kbits/s speed=0.105x    frame=  197 fps=2.5 q=-0.0 size=   13538kB time=00:00:08.16 bitrate=13577.9kbits/s speed=0.104x    frame=  199 fps=2.5 q=-0.0 size=   13691kB time=00:00:08.25 bitrate=13593.3kbits/s speed=0.104x    frame=  201 fps=2.5 q=-0.0 size=   13854kB time=00:00:08.33 bitrate=13618.0kbits/s speed=0.104x    frame=  203 fps=2.5 q=-0.0 size=   14037kB time=00:00:08.41 bitrate=13660.6kbits/s speed=0.104x    frame=  205 fps=2.5 q=-0.0 size=   14225kB time=00:00:08.50 bitrate=13707.5kbits/s speed=0.104x    frame=  207 fps=2.5 q=-0.0 size=   14402kB time=00:00:08.58 bitrate=13744.3kbits/s speed=0.104x    frame=  209 fps=2.5 q=-0.0 size=   14587kB time=00:00:08.66 bitrate=13786.2kbits/s speed=0.104x    frame=  211 fps=2.5 q=-0.0 size=   14587kB time=00:00:08.75 bitrate=13655.4kbits/s speed=0.104x    frame=  213 fps=2.5 q=-0.0 size=   14587kB time=00:00:08.83 bitrate=13527.1kbits/s speed=0.104x    frame=  215 fps=2.5 q=-0.0 size=   14587kB time=00:00:08.91 bitrate=13399.7kbits/s speed=0.104x    frame=  217 fps=2.5 q=-0.0 size=   14587kB time=00:00:09.00 bitrate=13276.1kbits/s speed=0.104x    frame=  219 fps=2.5 q=-0.0 size=   14587kB time=00:00:09.08 bitrate=13154.8kbits/s speed=0.105x    frame=  221 fps=2.5 q=-0.0 size=   15423kB time=00:00:09.16 bitrate=13780.8kbits/s speed=0.105x    frame=  224 fps=2.5 q=-0.0 size=   15423kB time=00:00:09.29 bitrate=13595.4kbits/s speed=0.105x    frame=  226 fps=2.5 q=-0.0 size=   15423kB time=00:00:09.37 bitrate=13475.0kbits/s speed=0.105x    frame=  228 fps=2.5 q=-0.0 size=   15423kB time=00:00:09.45 bitrate=13356.8kbits/s speed=0.106x    frame=  230 fps=2.6 q=-0.0 size=   15423kB time=00:00:09.54 bitrate=13239.2kbits/s speed=0.106x    frame=  232 fps=2.6 q=-0.0 size=   15423kB time=00:00:09.62 bitrate=13125.1kbits/s speed=0.106x    frame=  235 fps=2.6 q=-0.0 size=   15958kB time=00:00:09.75 bitrate=13406.6kbits/s speed=0.107x    frame=  237 fps=2.6 q=-0.0 size=   15958kB time=00:00:09.83 bitrate=13293.4kbits/s speed=0.107x    frame=  239 fps=2.6 q=-0.0 size=   15958kB time=00:00:09.91 bitrate=13180.9kbits/s speed=0.107x    frame=  241 fps=2.6 q=-0.0 size=   15958kB time=00:00:10.00 bitrate=13071.5kbits/s speed=0.107x    frame=  243 fps=2.6 q=-0.0 size=   15958kB time=00:00:10.08 bitrate=12963.9kbits/s speed=0.107x    frame=  245 fps=2.6 q=-0.0 size=   16894kB time=00:00:10.16 bitrate=13611.0kbits/s speed=0.107x    frame=  247 fps=2.6 q=-0.0 size=   16894kB time=00:00:10.25 bitrate=13500.8kbits/s speed=0.107x    frame=  249 fps=2.6 q=-0.0 size=   16894kB time=00:00:10.33 bitrate=13392.4kbits/s speed=0.107x    frame=  251 fps=2.6 q=-0.0 size=   16894kB time=00:00:10.41 bitrate=13284.4kbits/s speed=0.108x    frame=  253 fps=2.6 q=-0.0 size=   16894kB time=00:00:10.50 bitrate=13179.4kbits/s speed=0.108x    frame=  255 fps=2.6 q=-0.0 size=   16894kB time=00:00:10.58 bitrate=13076.0kbits/s speed=0.108x    frame=  258 fps=2.6 q=-0.0 size=   17625kB time=00:00:10.70 bitrate=13482.6kbits/s speed=0.108x    frame=  260 fps=2.6 q=-0.0 size=   17625kB time=00:00:10.79 bitrate=13377.7kbits/s speed=0.108x    frame=  262 fps=2.6 q=-0.0 size=   17625kB time=00:00:10.87 bitrate=13275.6kbits/s speed=0.109x    frame=  264 fps=2.6 q=-0.0 size=   17625kB time=00:00:10.95 bitrate=13175.1kbits/s speed=0.109x    frame=  266 fps=2.6 q=-0.0 size=   18052kB time=00:00:11.04 bitrate=13391.4kbits/s speed=0.109x    frame=  268 fps=2.6 q=-0.0 size=   18052kB time=00:00:11.12 bitrate=13291.5kbits/s speed=0.109x    frame=  270 fps=2.6 q=-0.0 size=   18052kB time=00:00:11.20 bitrate=13193.1kbits/s speed=0.109x    frame=  272 fps=2.6 q=-0.0 size=   18052kB time=00:00:11.29 bitrate=13095.0kbits/s speed=0.109x    frame=  274 fps=2.6 q=-0.0 size=   18052kB time=00:00:11.37 bitrate=12999.4kbits/s speed=0.109x    frame=  276 fps=2.6 q=-0.0 size=   18052kB time=00:00:11.45 bitrate=12905.3kbits/s speed=0.109x    frame=  278 fps=2.6 q=-0.0 size=   18644kB time=00:00:11.54 bitrate=13231.3kbits/s speed=0.109x    frame=  280 fps=2.6 q=-0.0 size=   18644kB time=00:00:11.62 bitrate=13136.8kbits/s speed=0.11x    frame=  282 fps=2.6 q=-0.0 size=   18644kB time=00:00:11.70 bitrate=13043.7kbits/s speed=0.11x    frame=  284 fps=2.6 q=-0.0 size=   18644kB time=00:00:11.79 bitrate=12950.8kbits/s speed=0.11x    frame=  286 fps=2.6 q=-0.0 size=   18644kB time=00:00:11.87 bitrate=12860.3kbits/s speed=0.11x    frame=  288 fps=2.6 q=-0.0 size=   18644kB time=00:00:11.95 bitrate=12771.0kbits/s speed=0.11x    frame=  290 fps=2.6 q=-0.0 size=   19454kB time=00:00:12.04 bitrate=13232.8kbits/s speed=0.11x    frame=  292 fps=2.6 q=-0.0 size=   19454kB time=00:00:12.12 bitrate=13142.3kbits/s speed=0.11x    frame=  294 fps=2.6 q=-0.0 size=   19454kB time=00:00:12.20 bitrate=13052.9kbits/s speed=0.11x    frame=  296 fps=2.6 q=-0.0 size=   19454kB time=00:00:12.29 bitrate=12963.7kbits/s speed=0.11x    frame=  298 fps=2.6 q=-0.0 size=   19454kB time=00:00:12.37 bitrate=12876.8kbits/s speed=0.11x    frame=  300 fps=2.6 q=-0.0 size=   19454kB time=00:00:12.45 bitrate=12791.0kbits/s speed=0.11x    frame=  302 fps=2.6 q=-0.0 size=   20128kB time=00:00:12.54 bitrate=13146.0kbits/s speed=0.11x    frame=  304 fps=2.7 q=-0.0 size=   20128kB time=00:00:12.62 bitrate=13059.6kbits/s speed=0.11x    frame=  306 fps=2.7 q=-0.0 size=   20128kB time=00:00:12.70 bitrate=12974.3kbits/s speed=0.11x    frame=  308 fps=2.7 q=-0.0 size=   20128kB time=00:00:12.79 bitrate=12889.1kbits/s speed=0.11x    frame=  310 fps=2.7 q=-0.0 size=   20128kB time=00:00:12.87 bitrate=12806.0kbits/s speed=0.11x    frame=  312 fps=2.7 q=-0.0 size=   20128kB time=00:00:12.95 bitrate=12724.0kbits/s speed=0.11x    frame=  314 fps=2.7 q=-0.0 size=   20852kB time=00:00:13.04 bitrate=13096.8kbits/s speed=0.11x    frame=  316 fps=2.7 q=-0.0 size=   20852kB time=00:00:13.12 bitrate=13014.0kbits/s speed=0.111x    frame=  318 fps=2.7 q=-0.0 size=   20852kB time=00:00:13.20 bitrate=12932.2kbits/s speed=0.111x    frame=  320 fps=2.7 q=-0.0 size=   20852kB time=00:00:13.29 bitrate=12850.5kbits/s speed=0.111x    frame=  322 fps=2.7 q=-0.0 size=   20852kB time=00:00:13.37 bitrate=12770.8kbits/s speed=0.111x    frame=  324 fps=2.7 q=-0.0 size=   20852kB time=00:00:13.45 bitrate=12692.0kbits/s speed=0.111x    frame=  326 fps=2.7 q=-0.0 size=   21679kB time=00:00:13.54 bitrate=13113.2kbits/s speed=0.111x    frame=  328 fps=2.7 q=-0.0 size=   21679kB time=00:00:13.62 bitrate=13033.3kbits/s speed=0.111x    frame=  330 fps=2.7 q=-0.0 size=   21679kB time=00:00:13.70 bitrate=12954.4kbits/s speed=0.111x    frame=  332 fps=2.7 q=-0.0 size=   21679kB time=00:00:13.79 bitrate=12875.5kbits/s speed=0.111x    frame=  334 fps=2.7 q=-0.0 size=   21679kB time=00:00:13.87 bitrate=12798.5kbits/s speed=0.111x    frame=  336 fps=2.7 q=-0.0 size=   21679kB time=00:00:13.95 bitrate=12722.4kbits/s speed=0.111x    frame=  338 fps=2.7 q=-0.0 size=   22474kB time=00:00:14.04 bitrate=13110.5kbits/s speed=0.111x    frame=  340 fps=2.7 q=-0.0 size=   22474kB time=00:00:14.12 bitrate=13033.4kbits/s speed=0.111x    frame=  342 fps=2.7 q=-0.0 size=   22474kB time=00:00:14.20 bitrate=12957.3kbits/s speed=0.111x    frame=  344 fps=2.7 q=-0.0 size=   22474kB time=00:00:14.29 bitrate=12881.1kbits/s speed=0.111x    frame=  346 fps=2.7 q=-0.0 size=   22474kB time=00:00:14.37 bitrate=12806.8kbits/s speed=0.111x    frame=  348 fps=2.7 q=-0.0 size=   22474kB time=00:00:14.45 bitrate=12733.3kbits/s speed=0.111x    frame=  350 fps=2.7 q=-0.0 size=   23244kB time=00:00:14.54 bitrate=13093.2kbits/s speed=0.111x    frame=  352 fps=2.7 q=-0.0 size=   23244kB time=00:00:14.62 bitrate=13018.9kbits/s speed=0.111x    frame=  354 fps=2.7 q=-0.0 size=   23244kB time=00:00:14.70 bitrate=12945.4kbits/s speed=0.111x    frame=  356 fps=2.7 q=-0.0 size=   23244kB time=00:00:14.79 bitrate=12871.9kbits/s speed=0.111x    frame=  358 fps=2.7 q=-0.0 size=   23244kB time=00:00:14.87 bitrate=12800.1kbits/s speed=0.111x    frame=  360 fps=2.7 q=-0.0 size=   23244kB time=00:00:14.95 bitrate=12729.1kbits/s speed=0.111x    frame=  362 fps=2.7 q=-0.0 size=   24081kB time=00:00:15.04 bitrate=13114.0kbits/s speed=0.111x    frame=  364 fps=2.7 q=-0.0 size=   24363kB time=00:00:15.12 bitrate=13194.5kbits/s speed=0.111x    frame=  366 fps=2.7 q=-0.0 size=   24363kB time=00:00:15.20 bitrate=13122.5kbits/s speed=0.111x    frame=  368 fps=2.7 q=-0.0 size=   24363kB time=00:00:15.29 bitrate=13050.5kbits/s speed=0.111x    frame=  370 fps=2.7 q=-0.0 size=   24363kB time=00:00:15.37 bitrate=12980.0kbits/s speed=0.112x    frame=  372 fps=2.7 q=-0.0 size=   24363kB time=00:00:15.45 bitrate=12910.3kbits/s speed=0.111x    frame=  374 fps=2.7 q=-0.0 size=   24363kB time=00:00:15.54 bitrate=12840.5kbits/s speed=0.112x    frame=  376 fps=2.7 q=-0.0 size=   25137kB time=00:00:15.62 bitrate=13178.0kbits/s speed=0.112x    frame=  378 fps=2.7 q=-0.0 size=   25137kB time=00:00:15.70 bitrate=13108.4kbits/s speed=0.112x    frame=  380 fps=2.7 q=-0.0 size=   25137kB time=00:00:15.79 bitrate=13038.7kbits/s speed=0.112x    frame=  382 fps=2.7 q=-0.0 size=   25137kB time=00:00:15.87 bitrate=12970.5kbits/s speed=0.112x    frame=  384 fps=2.7 q=-0.0 size=   25137kB time=00:00:15.95 bitrate=12903.1kbits/s speed=0.112x    frame=  386 fps=2.7 q=-0.0 size=   25137kB time=00:00:16.04 bitrate=12835.5kbits/s speed=0.112x    frame=  388 fps=2.7 q=-0.0 size=   25843kB time=00:00:16.12 bitrate=13128.1kbits/s speed=0.112x    frame=  390 fps=2.7 q=-0.0 size=   25843kB time=00:00:16.20 bitrate=13060.9kbits/s speed=0.112x    frame=  392 fps=2.7 q=-0.0 size=   25843kB time=00:00:16.29 bitrate=12993.5kbits/s speed=0.112x    frame=  394 fps=2.7 q=-0.0 size=   25843kB time=00:00:16.37 bitrate=12927.7kbits/s speed=0.112x    frame=  396 fps=2.7 q=-0.0 size=   25843kB time=00:00:16.45 bitrate=12862.5kbits/s speed=0.112x    frame=  398 fps=2.7 q=-0.0 size=   25843kB time=00:00:16.54 bitrate=12797.2kbits/s speed=0.112x    frame=  400 fps=2.7 q=-0.0 size=   26997kB time=00:00:16.62 bitrate=13301.8kbits/s speed=0.112x    frame=  402 fps=2.7 q=-0.0 size=   26997kB time=00:00:16.70 bitrate=13235.7kbits/s speed=0.112x    frame=  404 fps=2.7 q=-0.0 size=   26997kB time=00:00:16.79 bitrate=13169.5kbits/s speed=0.112x    frame=  406 fps=2.7 q=-0.0 size=   26997kB time=00:00:16.87 bitrate=13104.8kbits/s speed=0.112x    frame=  408 fps=2.7 q=-0.0 size=   26997kB time=00:00:16.95 bitrate=13040.6kbits/s speed=0.112x    frame=  410 fps=2.7 q=-0.0 size=   26997kB time=00:00:17.04 bitrate=12976.4kbits/s speed=0.112x    frame=  412 fps=2.7 q=-0.0 size=   27698kB time=00:00:17.12 bitrate=13248.9kbits/s speed=0.113x    frame=  414 fps=2.7 q=-0.0 size=   27698kB time=00:00:17.20 bitrate=13185.0kbits/s speed=0.113x    frame=  416 fps=2.7 q=-0.0 size=   27698kB time=00:00:17.29 bitrate=13120.9kbits/s speed=0.113x    frame=  418 fps=2.7 q=-0.0 size=   27698kB time=00:00:17.37 bitrate=13058.2kbits/s speed=0.113x    frame=  420 fps=2.7 q=-0.0 size=   28119kB time=00:00:17.45 bitrate=13194.0kbits/s speed=0.113x    frame=  422 fps=2.7 q=-0.0 size=   28119kB time=00:00:17.54 bitrate=13130.8kbits/s speed=0.113x    frame=  424 fps=2.7 q=-0.0 size=   28119kB time=00:00:17.62 bitrate=13069.0kbits/s speed=0.113x    frame=  426 fps=2.7 q=-0.0 size=   28119kB time=00:00:17.70 bitrate=13007.8kbits/s speed=0.113x    frame=  428 fps=2.7 q=-0.0 size=   28119kB time=00:00:17.79 bitrate=12946.4kbits/s speed=0.113x    frame=  430 fps=2.7 q=-0.0 size=   28119kB time=00:00:17.87 bitrate=12886.2kbits/s speed=0.113x    frame=  433 fps=2.7 q=-0.0 size=   29104kB time=00:00:18.00 bitrate=13244.9kbits/s speed=0.113x    frame=  435 fps=2.7 q=-0.0 size=   29104kB time=00:00:18.08 bitrate=13184.1kbits/s speed=0.113x    frame=  437 fps=2.7 q=-0.0 size=   29104kB time=00:00:18.16 bitrate=13123.1kbits/s speed=0.113x    frame=  439 fps=2.7 q=-0.0 size=   29104kB time=00:00:18.25 bitrate=13063.4kbits/s speed=0.113x    frame=  441 fps=2.7 q=-0.0 size=   29104kB time=00:00:18.33 bitrate=13004.3kbits/s speed=0.113x    frame=  443 fps=2.7 q=-0.0 size=   29675kB time=00:00:18.41 bitrate=13199.0kbits/s speed=0.113x    frame=  445 fps=2.7 q=-0.0 size=   29675kB time=00:00:18.50 bitrate=13139.8kbits/s speed=0.113x    frame=  447 fps=2.7 q=-0.0 size=   29675kB time=00:00:18.58 bitrate=13081.1kbits/s speed=0.113x    frame=  449 fps=2.7 q=-0.0 size=   29675kB time=00:00:18.66 bitrate=13022.2kbits/s speed=0.113x    frame=  451 fps=2.7 q=-0.0 size=   29675kB time=00:00:18.75 bitrate=12964.6kbits/s speed=0.113x    frame=  453 fps=2.7 q=-0.0 size=   29675kB time=00:00:18.83 bitrate=12907.5kbits/s speed=0.113x    frame=  455 fps=2.7 q=-0.0 size=   30469kB time=00:00:18.91 bitrate=13194.0kbits/s speed=0.113x    frame=  457 fps=2.7 q=-0.0 size=   30469kB time=00:00:19.00 bitrate=13136.3kbits/s speed=0.113x    frame=  459 fps=2.7 q=-0.0 size=   30469kB time=00:00:19.08 bitrate=13079.2kbits/s speed=0.113x    frame=  461 fps=2.7 q=-0.0 size=   30469kB time=00:00:19.16 bitrate=13021.9kbits/s speed=0.113x    frame=  463 fps=2.7 q=-0.0 size=   30469kB time=00:00:19.25 bitrate=12965.7kbits/s speed=0.113x    frame=  465 fps=2.7 q=-0.0 size=   30469kB time=00:00:19.33 bitrate=12910.1kbits/s speed=0.113x    frame=  467 fps=2.7 q=-0.0 size=   31217kB time=00:00:19.41 bitrate=13169.8kbits/s speed=0.113x    frame=  469 fps=2.7 q=-0.0 size=   31217kB time=00:00:19.50 bitrate=13113.7kbits/s speed=0.113x    frame=  471 fps=2.7 q=-0.0 size=   31217kB time=00:00:19.58 bitrate=13058.1kbits/s speed=0.113x    frame=  473 fps=2.7 q=-0.0 size=   31217kB time=00:00:19.66 bitrate=13002.4kbits/s speed=0.113x    frame=  475 fps=2.7 q=-0.0 size=   31217kB time=00:00:19.75 bitrate=12947.7kbits/s speed=0.113x    frame=  477 fps=2.7 q=-0.0 size=   31217kB time=00:00:19.83 bitrate=12893.5kbits/s speed=0.113x    frame=  479 fps=2.7 q=-0.0 size=   32003kB time=00:00:19.91 bitrate=13162.4kbits/s speed=0.113x    frame=  481 fps=2.7 q=-0.0 size=   32003kB time=00:00:20.00 bitrate=13107.8kbits/s speed=0.113x    frame=  483 fps=2.7 q=-0.0 size=   32003kB time=00:00:20.08 bitrate=13053.6kbits/s speed=0.113x    frame=  484 fps=2.7 q=-0.0 size=   32003kB time=00:00:20.12 bitrate=13026.4kbits/s speed=0.113x    frame=  486 fps=2.7 q=-0.0 size=   32003kB time=00:00:20.20 bitrate=12972.9kbits/s speed=0.113x    frame=  488 fps=2.7 q=-0.0 size=   32003kB time=00:00:20.29 bitrate=12919.2kbits/s speed=0.113x    frame=  490 fps=2.7 q=-0.0 size=   32003kB time=00:00:20.37 bitrate=12866.6kbits/s speed=0.113x    frame=  492 fps=2.7 q=-0.0 size=   32696kB time=00:00:20.45 bitrate=13091.8kbits/s speed=0.113x    frame=  493 fps=2.7 q=-0.0 size=   32696kB time=00:00:20.50 bitrate=13065.0kbits/s speed=0.113x    frame=  495 fps=2.7 q=-0.0 size=   32696kB time=00:00:20.58 bitrate=13012.3kbits/s speed=0.113x    frame=  497 fps=2.7 q=-0.0 size=   32696kB time=00:00:20.66 bitrate=12959.4kbits/s speed=0.113x    frame=  499 fps=2.7 q=-0.0 size=   32696kB time=00:00:20.75 bitrate=12907.6kbits/s speed=0.113x    frame=  500 fps=2.7 q=-0.0 size=   32696kB time=00:00:20.79 bitrate=12881.5kbits/s speed=0.113x    frame=  500 fps=2.7 q=-0.0 Lsize=   33430kB time=00:00:20.79 bitrate=13170.8kbits/s speed=0.113x    
video:33417kB audio:0kB subtitle:0kB other streams:0kB global headers:3kB muxing overhead: 0.037818%
bench: utime=163.408s
bench: maxrss=247696kB
